{"asset":{"version":"2.0","generator":"Blockbench 4.2.4 glTF exporter"},"scenes":[{"nodes":[11],"name":"blockbench_export"}],"scene":0,"nodes":[{"rotation":[0,0,-0.7071067811865475,0.7071067811865476],"name":"cylinder","mesh":0},{"rotation":[0,0,-0.7071067811865475,0.7071067811865476],"name":"cylinder","mesh":1},{"rotation":[0,0,0.573576436351046,0.8191520442889918],"translation":[-0.12500000000000006,-0.03125,-0.03125],"name":"cube","mesh":2},{"rotation":[0,0,0.38268343236508967,0.9238795325112868],"translation":[-0.006249999999999839,-0.1,-0.03125],"name":"cube","mesh":3},{"name":"handle","children":[0,1,2,3]},{"rotation":[0,0,-0.7071067811865475,0.7071067811865476],"translation":[1.982541115402065e-18,0.03125,0],"name":"cylinder","mesh":4},{"rotation":[0,0,-0.7071067811865475,0.7071067811865476],"translation":[1.982541115402065e-18,0.03125,0],"name":"cylinder","mesh":5},{"rotation":[0,0,-0.7071067811865475,0.7071067811865476],"translation":[-0.25,0.03125,-0.125],"name":"cube","mesh":6},{"rotation":[-0.4999999999999998,-0.49999999999999784,-0.4999999999999998,0.5000000000000027],"translation":[-0.3125000000000002,0.006249999999999999,-0.03125],"name":"cylinder","mesh":7},{"translation":[-0.25000000000000006,-0.03125,0],"name":"barrel","children":[5,6,7,8]},{"translation":[0.25000000000000006,0.0625,0],"name":"bone","children":[4,9]},{"children":[10]}],"bufferViews":[{"buffer":0,"byteOffset":0,"byteLength":720,"target":34962,"byteStride":12},{"buffer":0,"byteOffset":720,"byteLength":720,"target":34962,"byteStride":12},{"buffer":0,"byteOffset":1440,"byteLength":480,"target":34962,"byteStride":8},{"buffer":0,"byteOffset":1920,"byteLength":144,"target":34963},{"buffer":0,"byteOffset":2064,"byteLength":720,"target":34962,"byteStride":12},{"buffer":0,"byteOffset":2784,"byteLength":720,"target":34962,"byteStride":12},{"buffer":0,"byteOffset":3504,"byteLength":480,"target":34962,"byteStride":8},{"buffer":0,"byteOffset":3984,"byteLength":144,"target":34963},{"buffer":0,"byteOffset":4128,"byteLength":288,"target":34962,"byteStride":12},{"buffer":0,"byteOffset":4416,"byteLength":288,"target":34962,"byteStride":12},{"buffer":0,"byteOffset":4704,"byteLength":192,"target":34962,"byteStride":8},{"buffer":0,"byteOffset":4896,"byteLength":72,"target":34963},{"buffer":0,"byteOffset":4968,"byteLength":288,"target":34962,"byteStride":12},{"buffer":0,"byteOffset":5256,"byteLength":288,"target":34962,"byteStride":12},{"buffer":0,"byteOffset":5544,"byteLength":192,"target":34962,"byteStride":8},{"buffer":0,"byteOffset":5736,"byteLength":72,"target":34963},{"buffer":0,"byteOffset":5808,"byteLength":720,"target":34962,"byteStride":12},{"buffer":0,"byteOffset":6528,"byteLength":720,"target":34962,"byteStride":12},{"buffer":0,"byteOffset":7248,"byteLength":480,"target":34962,"byteStride":8},{"buffer":0,"byteOffset":7728,"byteLength":144,"target":34963},{"buffer":0,"byteOffset":7872,"byteLength":720,"target":34962,"byteStride":12},{"buffer":0,"byteOffset":8592,"byteLength":720,"target":34962,"byteStride":12},{"buffer":0,"byteOffset":9312,"byteLength":480,"target":34962,"byteStride":8},{"buffer":0,"byteOffset":9792,"byteLength":144,"target":34963},{"buffer":0,"byteOffset":9936,"byteLength":288,"target":34962,"byteStride":12},{"buffer":0,"byteOffset":10224,"byteLength":288,"target":34962,"byteStride":12},{"buffer":0,"byteOffset":10512,"byteLength":192,"target":34962,"byteStride":8},{"buffer":0,"byteOffset":10704,"byteLength":72,"target":34963},{"buffer":0,"byteOffset":10776,"byteLength":360,"target":34962,"byteStride":12},{"buffer":0,"byteOffset":11136,"byteLength":360,"target":34962,"byteStride":12},{"buffer":0,"byteOffset":11496,"byteLength":240,"target":34962,"byteStride":8},{"buffer":0,"byteOffset":11736,"byteLength":72,"target":34963},{"buffer":0,"byteOffset":11808,"byteLength":4},{"buffer":0,"byteOffset":11812,"byteLength":16},{"buffer":0,"byteOffset":11828,"byteLength":12},{"buffer":0,"byteOffset":11840,"byteLength":36},{"buffer":0,"byteOffset":11876,"byteLength":4},{"buffer":0,"byteOffset":11880,"byteLength":16},{"buffer":0,"byteOffset":11896,"byteLength":12},{"buffer":0,"byteOffset":11908,"byteLength":36},{"buffer":0,"byteOffset":11944,"byteLength":40},{"buffer":0,"byteOffset":11984,"byteLength":160},{"buffer":0,"byteOffset":12144,"byteLength":24},{"buffer":0,"byteOffset":12168,"byteLength":72},{"buffer":0,"byteOffset":12240,"byteLength":16},{"buffer":0,"byteOffset":12256,"byteLength":48},{"buffer":0,"byteOffset":12304,"byteLength":28},{"buffer":0,"byteOffset":12332,"byteLength":112},{"buffer":0,"byteOffset":12444,"byteLength":32},{"buffer":0,"byteOffset":12476,"byteLength":96},{"buffer":0,"byteOffset":12572,"byteLength":8},{"buffer":0,"byteOffset":12580,"byteLength":32},{"buffer":0,"byteOffset":12612,"byteLength":56},{"buffer":0,"byteOffset":12668,"byteLength":224},{"buffer":0,"byteOffset":12892,"byteLength":80},{"buffer":0,"byteOffset":12972,"byteLength":240}],"buffers":[{"byteLength":13212,"uri":"data:application/octet-stream;base64,"}],"accessors":[{"bufferView":0,"componentType":5126,"count":60,"max":[0.052063293755054474,-0.1875,0.04374999925494194],"min":[-0.039563294500112534,-0.25,-0.10625000298023224],"type":"VEC3"},{"bufferView":1,"componentType":5126,"count":60,"max":[0.9999125599861145,1,0.953970193862915],"min":[-1,-1,-0.9403062462806702],"type":"VEC3"},{"bufferView":2,"componentType":5126,"count":60,"max":[0.9375,1],"min":[0,0.0625],"type":"VEC2"},{"bufferView":3,"componentType":5123,"count":72,"max":[59],"min":[0],"type":"SCALAR"},{"bufferView":4,"componentType":5126,"count":60,"max":[0.052063293755054474,-0.14374999701976776,0.04374999925494194],"min":[-0.039563294500112534,-0.1875,-0.10625000298023224],"type":"VEC3"},{"bufferView":5,"componentType":5126,"count":60,"max":[1,1,0.8514374494552612],"min":[-0.7592566013336182,-1,-0.8652610182762146],"type":"VEC3"},{"bufferView":6,"componentType":5126,"count":60,"max":[0.9212367534637451,1],"min":[0.008431250229477882,0.05000000074505806],"type":"VEC2"},{"bufferView":7,"componentType":5123,"count":72,"max":[59],"min":[0],"type":"SCALAR"},{"bufferView":8,"componentType":5126,"count":24,"max":[0.03125,0.09375,0.04374999925494194],"min":[-0.03125,-0.09375,-0.04374999925494194],"type":"VEC3"},{"bufferView":9,"componentType":5126,"count":24,"max":[0.9977851510047913,1,0.9994449019432068],"min":[-0.9977851510047913,-1,-0.9994449019432068],"type":"VEC3"},{"bufferView":10,"componentType":5126,"count":24,"max":[0.8125,0.75],"min":[0.2874999940395355,0.125],"type":"VEC2"},{"bufferView":11,"componentType":5123,"count":36,"max":[23],"min":[0],"type":"SCALAR"},{"bufferView":12,"componentType":5126,"count":24,"max":[0.01875000074505806,0.05624999850988388,0.03750000149011612],"min":[-0.01875000074505806,-0.05624999850988388,-0.03750000149011612],"type":"VEC3"},{"bufferView":13,"componentType":5126,"count":24,"max":[0.9984603524208069,1,0.9938837289810181],"min":[-0.9984603524208069,-1,-0.9938837289810181],"type":"VEC3"},{"bufferView":14,"componentType":5126,"count":24,"max":[0.8125,0.7397444248199463],"min":[0.5,0.1875],"type":"VEC2"},{"bufferView":15,"componentType":5123,"count":36,"max":[23],"min":[0],"type":"SCALAR"},{"bufferView":16,"componentType":5126,"count":60,"max":[0.039563294500112534,0,0.04374999925494194],"min":[-0.039563294500112534,-0.375,-0.04374999925494194],"type":"VEC3"},{"bufferView":17,"componentType":5126,"count":60,"max":[0.9994449019432068,1,0.8656647801399231],"min":[-0.9994449019432068,-1,-0.8656647801399231],"type":"VEC3"},{"bufferView":18,"componentType":5126,"count":60,"max":[0.9645624756813049,1],"min":[0,0],"type":"VEC2"},{"bufferView":19,"componentType":5123,"count":72,"max":[59],"min":[0],"type":"SCALAR"},{"bufferView":20,"componentType":5126,"count":60,"max":[0.039563294500112534,0,-0.01875000074505806],"min":[-0.039563294500112534,-0.375,-0.10625000298023224],"type":"VEC3"},{"bufferView":21,"componentType":5126,"count":60,"max":[0.9994449019432068,1,0.8656647801399231],"min":[-0.9994449019432068,-1,-0.8656647801399231],"type":"VEC3"},{"bufferView":22,"componentType":5126,"count":60,"max":[0.9645624756813049,0.875],"min":[0.125,0],"type":"VEC2"},{"bufferView":23,"componentType":5123,"count":72,"max":[59],"min":[0],"type":"SCALAR"},{"bufferView":24,"componentType":5126,"count":24,"max":[0.05156249925494194,0.25,0.15625],"min":[0.02500000037252903,-0.11874999850988388,0.03125],"type":"VEC3"},{"bufferView":25,"componentType":5126,"count":24,"max":[0.9999153017997742,1,0.9977096915245056],"min":[-1,-1,-0.9832983613014221],"type":"VEC3"},{"bufferView":26,"componentType":5126,"count":24,"max":[0.75,1],"min":[0,0.3125],"type":"VEC2"},{"bufferView":27,"componentType":5123,"count":36,"max":[23],"min":[0],"type":"SCALAR"},{"bufferView":28,"componentType":5126,"count":30,"max":[0.016125794500112534,0.0625,0.02500000037252903],"min":[-0.016125794500112534,-0.0625,-0.0031250000465661287],"type":"VEC3"},{"bufferView":29,"componentType":5126,"count":30,"max":[0.8546820282936096,1,0.5188677906990051],"min":[-0.8545204401016235,-1,-0.9999218583106995],"type":"VEC3"},{"bufferView":30,"componentType":5126,"count":30,"max":[0.21975000202655792,1],"min":[0,0.7906249761581421],"type":"VEC2"},{"bufferView":31,"componentType":5123,"count":36,"max":[29],"min":[0],"type":"SCALAR"},{"bufferView":32,"componentType":5126,"count":1,"max":[0.0833333358168602],"min":[0.0833333358168602],"type":"SCALAR"},{"bufferView":33,"componentType":5126,"count":1,"max":[0,0,0,1],"min":[0,0,0,1],"type":"VEC4"},{"bufferView":34,"componentType":5126,"count":3,"max":[0.5],"min":[0],"type":"SCALAR"},{"bufferView":35,"componentType":5126,"count":3,"max":[0.0625,0,0],"min":[0,0,0],"type":"VEC3"},{"bufferView":36,"componentType":5126,"count":1,"max":[0.0833333358168602],"min":[0.0833333358168602],"type":"SCALAR"},{"bufferView":37,"componentType":5126,"count":1,"max":[0,0,0,1],"min":[0,0,0,1],"type":"VEC4"},{"bufferView":38,"componentType":5126,"count":3,"max":[0.5],"min":[0],"type":"SCALAR"},{"bufferView":39,"componentType":5126,"count":3,"max":[-0.1875,-0.03125,0],"min":[-0.25,-0.03125,0],"type":"VEC3"},{"bufferView":40,"componentType":5126,"count":10,"max":[0.7083333134651184],"min":[0],"type":"SCALAR"},{"bufferView":41,"componentType":5126,"count":10,"max":[0.009554433636367321,0.009124958887696266,0.08814097195863724,0.999986469745636],"min":[0.0026370955165475607,-0.0011319398181512952,-0.4583810865879059,0.8887230157852173],"type":"VEC4"},{"bufferView":42,"componentType":5126,"count":6,"max":[0.7083333134651184],"min":[0],"type":"SCALAR"},{"bufferView":43,"componentType":5126,"count":6,"max":[0.515625,0.3006249964237213,0],"min":[0.25,0.046875,0],"type":"VEC3"},{"bufferView":44,"componentType":5126,"count":4,"max":[0.1666666716337204],"min":[0],"type":"SCALAR"},{"bufferView":45,"componentType":5126,"count":4,"max":[1.2000000476837158,1.5,1],"min":[0.4000000059604645,1,1],"type":"VEC3"},{"bufferView":46,"componentType":5126,"count":7,"max":[0.9166666865348816],"min":[0],"type":"SCALAR"},{"bufferView":47,"componentType":5126,"count":7,"max":[0,0,0.6915130615234375,1],"min":[0,0,0,0.7223639488220215],"type":"VEC4"},{"bufferView":48,"componentType":5126,"count":8,"max":[0.9166666865348816],"min":[0],"type":"SCALAR"},{"bufferView":49,"componentType":5126,"count":8,"max":[1.600000023841858,1.7999999523162842,1],"min":[1,1,1],"type":"VEC3"},{"bufferView":50,"componentType":5126,"count":2,"max":[0.7916666865348816],"min":[0],"type":"SCALAR"},{"bufferView":51,"componentType":5126,"count":2,"max":[0,0,0,1],"min":[0,0,0,1],"type":"VEC4"},{"bufferView":52,"componentType":5126,"count":14,"max":[1.2083333730697632],"min":[0],"type":"SCALAR"},{"bufferView":53,"componentType":5126,"count":14,"max":[0,0,0.3214394748210907,1],"min":[0,0,-0.237685889005661,0.9469301104545593],"type":"VEC4"},{"bufferView":54,"componentType":5126,"count":20,"max":[1.2083333730697632],"min":[0],"type":"SCALAR"},{"bufferView":55,"componentType":5126,"count":20,"max":[0.265625,0.296875,0],"min":[0.25,0.015625,0],"type":"VEC3"}],"materials":[{"pbrMetallicRoughness":{"metallicFactor":0,"roughnessFactor":1,"baseColorTexture":{"index":0}},"alphaMode":"MASK","alphaCutoff":0.05,"doubleSided":true},{"pbrMetallicRoughness":{"metallicFactor":0,"roughnessFactor":1,"baseColorTexture":{"index":1}},"alphaMode":"MASK","alphaCutoff":0.05,"doubleSided":true}],"textures":[{"sampler":0,"source":0,"name":"texture.png"},{"sampler":1,"source":1,"name":"texture2.png"}],"samplers":[{"magFilter":9728,"minFilter":9728,"wrapS":33071,"wrapT":33071},{"magFilter":9728,"minFilter":9728,"wrapS":33071,"wrapT":33071}],"images":[{"mimeType":"image/png","uri":"data:image/png;base64,"},{"mimeType":"image/png","uri":"data:image/png;base64,"}],"meshes":[{"primitives":[{"mode":4,"attributes":{"POSITION":0,"NORMAL":1,"TEXCOORD_0":2},"indices":3,"material":0}]},{"primitives":[{"mode":4,"attributes":{"POSITION":4,"NORMAL":5,"TEXCOORD_0":6},"indices":7,"material":0}]},{"primitives":[{"mode":4,"attributes":{"POSITION":8,"NORMAL":9,"TEXCOORD_0":10},"indices":11,"material":0}]},{"primitives":[{"mode":4,"attributes":{"POSITION":12,"NORMAL":13,"TEXCOORD_0":14},"indices":15,"material":0}]},{"primitives":[{"mode":4,"attributes":{"POSITION":16,"NORMAL":17,"TEXCOORD_0":18},"indices":19,"material":0}]},{"primitives":[{"mode":4,"attributes":{"POSITION":20,"NORMAL":21,"TEXCOORD_0":22},"indices":23,"material":0}]},{"primitives":[{"mode":4,"attributes":{"POSITION":24,"NORMAL":25,"TEXCOORD_0":26},"indices":27,"material":0}]},{"primitives":[{"mode":4,"attributes":{"POSITION":28,"NORMAL":29,"TEXCOORD_0":30},"indices":31,"material":1}]}],"animations":[{"name":"animation.shotgun.shoot","samplers":[{"input":32,"output":33,"interpolation":"LINEAR"},{"input":34,"output":35,"interpolation":"LINEAR"},{"input":36,"output":37,"interpolation":"LINEAR"},{"input":38,"output":39,"interpolation":"LINEAR"},{"input":40,"output":41,"interpolation":"LINEAR"},{"input":42,"output":43,"interpolation":"LINEAR"},{"input":44,"output":45,"interpolation":"LINEAR"}],"channels":[{"sampler":0,"target":{"node":4,"path":"rotation"}},{"sampler":1,"target":{"node":4,"path":"translation"}},{"sampler":2,"target":{"node":9,"path":"rotation"}},{"sampler":3,"target":{"node":9,"path":"translation"}},{"sampler":4,"target":{"node":10,"path":"rotation"}},{"sampler":5,"target":{"node":10,"path":"translation"}},{"sampler":6,"target":{"node":10,"path":"scale"}}]},{"name":"animation.shotgun.reload","samplers":[{"input":46,"output":47,"interpolation":"LINEAR"},{"input":48,"output":49,"interpolation":"LINEAR"},{"input":50,"output":51,"interpolation":"LINEAR"},{"input":52,"output":53,"interpolation":"LINEAR"},{"input":54,"output":55,"interpolation":"LINEAR"}],"channels":[{"sampler":0,"target":{"node":9,"path":"rotation"}},{"sampler":1,"target":{"node":9,"path":"scale"}},{"sampler":2,"target":{"node":4,"path":"rotation"}},{"sampler":3,"target":{"node":10,"path":"rotation"}},{"sampler":4,"target":{"node":10,"path":"translation"}}]}]}