{"asset":{"version":"2.0","generator":"Blockbench 4.2.4 glTF exporter"},"scenes":[{"nodes":[4],"name":"blockbench_export"}],"scene":0,"nodes":[{"name":"handle","mesh":0},{"translation":[0,0,0.0065625],"name":"guard","mesh":1},{"translation":[0,0,0.0065625],"name":"blade","mesh":2},{"name":"handle","children":[0,1,2]},{"children":[3]}],"bufferViews":[{"buffer":0,"byteOffset":0,"byteLength":288,"target":34962,"byteStride":12},{"buffer":0,"byteOffset":288,"byteLength":288,"target":34962,"byteStride":12},{"buffer":0,"byteOffset":576,"byteLength":192,"target":34962,"byteStride":8},{"buffer":0,"byteOffset":768,"byteLength":72,"target":34963},{"buffer":0,"byteOffset":840,"byteLength":288,"target":34962,"byteStride":12},{"buffer":0,"byteOffset":1128,"byteLength":288,"target":34962,"byteStride":12},{"buffer":0,"byteOffset":1416,"byteLength":192,"target":34962,"byteStride":8},{"buffer":0,"byteOffset":1608,"byteLength":72,"target":34963},{"buffer":0,"byteOffset":1680,"byteLength":288,"target":34962,"byteStride":12},{"buffer":0,"byteOffset":1968,"byteLength":288,"target":34962,"byteStride":12},{"buffer":0,"byteOffset":2256,"byteLength":192,"target":34962,"byteStride":8},{"buffer":0,"byteOffset":2448,"byteLength":72,"target":34963},{"buffer":0,"byteOffset":2520,"byteLength":80},{"buffer":0,"byteOffset":2600,"byteLength":320},{"buffer":0,"byteOffset":2920,"byteLength":72},{"buffer":0,"byteOffset":2992,"byteLength":216},{"buffer":0,"byteOffset":3208,"byteLength":40},{"buffer":0,"byteOffset":3248,"byteLength":120},{"buffer":0,"byteOffset":3368,"byteLength":68},{"buffer":0,"byteOffset":3436,"byteLength":272},{"buffer":0,"byteOffset":3708,"byteLength":52},{"buffer":0,"byteOffset":3760,"byteLength":156},{"buffer":0,"byteOffset":3916,"byteLength":20},{"buffer":0,"byteOffset":3936,"byteLength":60},{"buffer":0,"byteOffset":3996,"byteLength":52},{"buffer":0,"byteOffset":4048,"byteLength":208},{"buffer":0,"byteOffset":4256,"byteLength":48},{"buffer":0,"byteOffset":4304,"byteLength":144}],"buffers":[{"byteLength":4448,"uri":"data:application/octet-stream;base64,"}],"accessors":[{"bufferView":0,"componentType":5126,"count":24,"max":[0.019687499850988388,0.41999998688697815,0.026249999180436134],"min":[-0.019687499850988388,0,-0.026249999180436134],"type":"VEC3"},{"bufferView":1,"componentType":5126,"count":24,"max":[1,1,1],"min":[-1,-1,-1],"type":"VEC3"},{"bufferView":2,"componentType":5126,"count":24,"max":[0.28125,0.96875],"min":[0.125,0.6875],"type":"VEC2"},{"bufferView":3,"componentType":5123,"count":36,"max":[23],"min":[0],"type":"SCALAR"},{"bufferView":4,"componentType":5126,"count":24,"max":[0.05249999836087227,0.4609375,0.04593750089406967],"min":[-0.05249999836087227,0.3790625035762787,-0.059062499552965164],"type":"VEC3"},{"bufferView":5,"componentType":5126,"count":24,"max":[1,1,1],"min":[-1,-1,-1],"type":"VEC3"},{"bufferView":6,"componentType":5126,"count":24,"max":[0.3125,0.96875],"min":[0.15625,0.71875],"type":"VEC2"},{"bufferView":7,"componentType":5123,"count":36,"max":[23],"min":[0],"type":"SCALAR"},{"bufferView":8,"componentType":5126,"count":24,"max":[0.006562499795109034,1.3650000095367432,0.026249999180436134],"min":[-0.006562499795109034,0.41999998688697815,-0.04593750089406967],"type":"VEC3"},{"bufferView":9,"componentType":5126,"count":24,"max":[1,0.3546542227268219,0.999975860118866],"min":[-1,-1,-0.9998487830162048],"type":"VEC3"},{"bufferView":10,"componentType":5126,"count":24,"max":[0.535193681716919,1],"min":[0.027067910879850388,0.5],"type":"VEC2"},{"bufferView":11,"componentType":5123,"count":36,"max":[23],"min":[0],"type":"SCALAR"},{"bufferView":12,"componentType":5126,"count":20,"max":[1.25],"min":[0],"type":"SCALAR"},{"bufferView":13,"componentType":5126,"count":20,"max":[0.6199394464492798,0.676080584526062,0.4286108613014221,0.8891453146934509],"min":[-0.7903857827186584,-0.3401104211807251,-0.5117971897125244,-0.2858814597129822],"type":"VEC4"},{"bufferView":14,"componentType":5126,"count":18,"max":[1.25],"min":[0],"type":"SCALAR"},{"bufferView":15,"componentType":5126,"count":18,"max":[1.0625,0.5625,0.625],"min":[-2,0.3125,-1.625],"type":"VEC3"},{"bufferView":16,"componentType":5126,"count":10,"max":[1.0833333730697632],"min":[0],"type":"SCALAR"},{"bufferView":17,"componentType":5126,"count":10,"max":[1,1.399999976158142,8.01669979095459],"min":[1,1,1],"type":"VEC3"},{"bufferView":18,"componentType":5126,"count":17,"max":[1.0833333730697632],"min":[0],"type":"SCALAR"},{"bufferView":19,"componentType":5126,"count":17,"max":[0.7373113036155701,0.8204864859580994,0.7716088891029358,0.8826370239257812],"min":[-0.693038821220398,-0.7867088317871094,-0.5606673955917358,-0.2858814597129822],"type":"VEC4"},{"bufferView":20,"componentType":5126,"count":13,"max":[1.0833333730697632],"min":[0],"type":"SCALAR"},{"bufferView":21,"componentType":5126,"count":13,"max":[2.71875,1.5625,0.375],"min":[-2.28125,0.3125,-1.375],"type":"VEC3"},{"bufferView":22,"componentType":5126,"count":5,"max":[0.5],"min":[0],"type":"SCALAR"},{"bufferView":23,"componentType":5126,"count":5,"max":[1,1.100000023841858,9.399999618530273],"min":[1,1,1],"type":"VEC3"},{"bufferView":24,"componentType":5126,"count":13,"max":[0.7083333134651184],"min":[0],"type":"SCALAR"},{"bufferView":25,"componentType":5126,"count":13,"max":[0.08582844585180283,0.741253137588501,-0.15183591842651367,0.8748496174812317],"min":[-0.6446273326873779,-0.05189720541238785,-0.6220675110816956,0.15102078020572662],"type":"VEC4"},{"bufferView":26,"componentType":5126,"count":12,"max":[0.7083333134651184],"min":[0],"type":"SCALAR"},{"bufferView":27,"componentType":5126,"count":12,"max":[0.38337963819503784,0,0.375],"min":[-0.375,0,-0.375],"type":"VEC3"}],"materials":[{"pbrMetallicRoughness":{"metallicFactor":0,"roughnessFactor":1,"baseColorTexture":{"index":0}},"alphaMode":"MASK","alphaCutoff":0.05,"doubleSided":true}],"textures":[{"sampler":0,"source":0,"name":"texture"}],"samplers":[{"magFilter":9728,"minFilter":9728,"wrapS":33071,"wrapT":33071}],"images":[{"mimeType":"image/png","uri":"data:image/png;base64,"}],"meshes":[{"primitives":[{"mode":4,"attributes":{"POSITION":0,"NORMAL":1,"TEXCOORD_0":2},"indices":3,"material":0}]},{"primitives":[{"mode":4,"attributes":{"POSITION":4,"NORMAL":5,"TEXCOORD_0":6},"indices":7,"material":0}]},{"primitives":[{"mode":4,"attributes":{"POSITION":8,"NORMAL":9,"TEXCOORD_0":10},"indices":11,"material":0}]}],"animations":[{"name":"swing1","samplers":[{"input":12,"output":13,"interpolation":"LINEAR"},{"input":14,"output":15,"interpolation":"LINEAR"},{"input":16,"output":17,"interpolation":"LINEAR"}],"channels":[{"sampler":0,"target":{"node":3,"path":"rotation"}},{"sampler":1,"target":{"node":3,"path":"translation"}},{"sampler":2,"target":{"node":3,"path":"scale"}}]},{"name":"swing2","samplers":[{"input":18,"output":19,"interpolation":"LINEAR"},{"input":20,"output":21,"interpolation":"LINEAR"},{"input":22,"output":23,"interpolation":"LINEAR"}],"channels":[{"sampler":0,"target":{"node":3,"path":"rotation"}},{"sampler":1,"target":{"node":3,"path":"translation"}},{"sampler":2,"target":{"node":3,"path":"scale"}}]},{"name":"jordan swing","samplers":[{"input":24,"output":25,"interpolation":"LINEAR"},{"input":26,"output":27,"interpolation":"LINEAR"}],"channels":[{"sampler":0,"target":{"node":3,"path":"rotation"}},{"sampler":1,"target":{"node":3,"path":"translation"}}]}]}